<?xml version="1.0" encoding="UTF-8" standalone="no"?>
<svg
   xmlns:dc="http://purl.org/dc/elements/1.1/"
   xmlns:cc="http://creativecommons.org/ns#"
   xmlns:rdf="http://www.w3.org/1999/02/22-rdf-syntax-ns#"
   xmlns:svg="http://www.w3.org/2000/svg"
   xmlns="http://www.w3.org/2000/svg"
   xmlns:sodipodi="http://sodipodi.sourceforge.net/DTD/sodipodi-0.dtd"
   xmlns:inkscape="http://www.inkscape.org/namespaces/inkscape"
   version="1.1"
   id="Layer_1"
   x="0px"
   y="0px"
   width="208px"
   height="80px"
   viewBox="0 0 208 80"
   enable-background="new 0 0 208 80"
   xml:space="preserve"
   inkscape:version="0.48.4 r9939"
   sodipodi:docname="MJ.svg"><metadata
     id="metadata17"><rdf:RDF><cc:Work
         rdf:about=""><dc:format>image/svg+xml</dc:format><dc:type
           rdf:resource="http://purl.org/dc/dcmitype/StillImage" /></cc:Work></rdf:RDF></metadata><defs
     id="defs15" /><sodipodi:namedview
     pagecolor="#ffffff"
     bordercolor="#666666"
     borderopacity="1"
     objecttolerance="10"
     gridtolerance="10"
     guidetolerance="10"
     inkscape:pageopacity="0"
     inkscape:pageshadow="2"
     inkscape:window-width="1280"
     inkscape:window-height="720"
     id="namedview13"
     showgrid="false"
     inkscape:zoom="1.9278846"
     inkscape:cx="105.03741"
     inkscape:cy="40"
     inkscape:window-x="0"
     inkscape:window-y="24"
     inkscape:window-maximized="1"
     inkscape:current-layer="Layer_1" /><path
     d="M23.293,61c0,0,1.891-4.795,8.24-4.795c4.763,0,8.55,0.115,8.665,0.12l0.548-0.726l0.005-0.797c0,0-2.214-0.398-8.563-0.398  c-6.35,0-4.528-5.404-4.528-5.404h24.85l0.173-0.475l0.361-0.993L53.239,47h-24.85c0,0,2.106-5.389,8.456-5.389  c6.349,0,8.787-0.219,8.787-0.219l0.614-0.904l0.015-0.822c-0.119,0.006-4.01,0.178-8.773,0.178c-6.35,0-4.732-4.844-4.732-4.844  h24.85l1.092-3h-31L16.051,64h31l0.072-0.198L48.143,61H23.293z"
     id="path3"
     style="fill:#353535;fill-opacity:1" /><path
     d="M169.993,61c0,0,1.601-4.795-4.749-4.795c-4.763,0-8.634,0.115-8.752,0.12l-0.02-0.726l0.575-0.797  c0,0,2.504-0.398,8.853-0.398c6.35,0,8.461-5.404,8.461-5.404h-24.85l0.173-0.475l0.361-0.993L150.239,47h24.85  c0,0,1.816-5.389-4.533-5.389c-6.349,0-8.628-0.219-8.628-0.219l0.044-0.904l0.583-0.822c0.115,0.006,3.881,0.178,8.644,0.178  c6.35,0,8.257-4.844,8.257-4.844h-24.85l1.092-3h31l-11.647,32h-31l0.072-0.198l1.02-2.802H169.993z"
     id="path5"
     style="fill:#353535;fill-opacity:1" /><g
     id="g7"
     style="fill:#353535;fill-opacity:1"><path
       d="M83.169,66.254l-2.374-34.626L62.82,64.378h-5.596l28.009-50.096l2.344,39.859l31.36-39.859l-8.458,50.096h-5.596   l5.798-32.75L83.169,66.254z"
       id="path9"
       style="fill:#353535;fill-opacity:1" /><path
       d="M147.717,16.191h5.793l-13.681,37.588c-1.47,4.038-3.453,7.028-5.947,8.97c-2.496,1.942-5.598,2.913-9.306,2.913   c-1.975,0-3.616-0.39-4.923-1.169c-1.308-0.778-2.368-1.98-3.181-3.604l5.163-3.785c0.738,1.229,1.516,2.106,2.333,2.633   c0.817,0.527,1.774,0.79,2.872,0.79c1.733,0,3.192-0.647,4.377-1.942c1.184-1.294,2.468-3.84,3.849-7.636L147.717,16.191z"
       id="path11"
       style="fill:#353535;fill-opacity:1" /></g></svg>